<svg width="64" height="64" viewBox="0 0 64 64" fill="none"
    xmlns="http://www.w3.org/2000/svg">
    <path d="M21.3333 53.3333H41.3333C43.5413 53.3333 45.3333 51.624 45.3333 49.3867C45.3333 48 44.5333 45.3333 41.3333 45.3333H49.3333C51.5413 45.3333 53.3333 43.624 53.3333 41.3867C53.3333 40.0347 52.5333 37.3333 49.3333 37.3333H54.6667C56.8747 37.3333 58.6667 35.624 58.6667 33.3867C58.6667 31.1467 56.8747 29.3333 54.6667 29.3333H49.3333C52.5333 29.3333 53.3333 26.6853 53.3333 25.3333C53.3333 23.0933 51.4907 21.3333 49.28 21.3333L26.6667 21.3333" stroke="white" stroke-width="2" stroke-linecap="round" stroke-linejoin="round"/>
    <path d="M49.3333 29.3333H34.6667" stroke="white" stroke-width="2" stroke-linecap="round" stroke-linejoin="round"/>
    <path d="M49.3333 37.3333H34.6667" stroke="white" stroke-width="2" stroke-linecap="round" stroke-linejoin="round"/>
    <path d="M49.3333 45.3333H34.6667" stroke="white" stroke-width="2" stroke-linecap="round" stroke-linejoin="round"/>
    <path d="M21.3333 53.3333C10.6667 53.3333 5.33333 44.976 5.33333 34.6667C5.33333 24.3573 8 20.8107 21.3333 12.8107L28.28 8.62134C30.5947 7.192 33.5973 8.336 34.4507 10.9707C34.7321 11.8322 34.7418 12.7594 34.4785 13.6266C34.2152 14.4938 33.6916 15.2591 32.9787 15.8187L26.5787 21.3333" stroke="white" stroke-width="2" stroke-linecap="round" stroke-linejoin="round"/>
</svg>
