<svg width="64" height="64" viewBox="0 0 64 64" fill="none"
    xmlns="http://www.w3.org/2000/svg">
    <path d="M49.9378 17.3156C49.2375 17.326 48.5426 17.4398 47.8756 17.6533C47.5378 15.4489 45.12 13.7778 42.0622 13.7778C41.1352 13.7471 40.2112 13.8981 39.3422 14.2222C38.7896 13.249 37.9754 12.4501 36.9919 11.9159C36.0084 11.3817 34.895 11.1337 33.7778 11.2C32.8019 11.1566 31.8298 11.3469 30.9423 11.7551C30.0548 12.1632 29.2777 12.7775 28.6756 13.5467C27.659 12.9441 26.4972 12.6306 25.3156 12.64C23.8997 12.5463 22.5036 13.0114 21.4267 13.9353C20.3498 14.8593 19.6781 16.1686 19.5556 17.5822V19.2C17.6711 19.9111 12.2489 22.4 10.8267 27.8044C9.40444 33.2089 11.4311 42.0267 15.6089 48.7467C18.4174 53.1251 21.9667 56.9812 26.0978 60.1422C26.372 60.34 26.7019 60.4458 27.04 60.4444H45.4222C45.7761 60.4406 46.1192 60.3221 46.4 60.1067C49.5924 57.1647 51.9011 53.3908 53.0667 49.2089C55.0826 43.7026 56.0241 37.8608 55.84 32V22.2222C55.6958 20.7939 54.9964 19.4794 53.8925 18.5616C52.7886 17.6439 51.3684 17.1964 49.9378 17.3156V17.3156ZM52.64 32C52.834 37.5405 51.9463 43.0657 50.0267 48.2667C49.0207 51.6313 47.2292 54.7085 44.8 57.2445H27.5022C23.8861 54.3824 20.7632 50.9473 18.2578 47.0756C14.0444 40.2133 12.9244 32.4444 13.8489 28.6044C14.3336 27.2737 15.0918 26.0593 16.0748 25.0396C17.0577 24.0199 18.2435 23.2176 19.5556 22.6844V36.2844C19.5556 36.7088 19.7241 37.1158 20.0242 37.4158C20.3242 37.7159 20.7312 37.8844 21.1556 37.8844C21.5799 37.8844 21.9869 37.7159 22.2869 37.4158C22.587 37.1158 22.7556 36.7088 22.7556 36.2844V17.5822C22.7556 16.7467 23.8044 15.8044 25.3511 15.8044C26.8978 15.8044 28 16.7289 28 17.5822V27.7511H31.2V15.6622C31.2 15.1644 32.2311 14.4 33.7956 14.4C35.36 14.4 36.5156 15.2533 36.5156 15.7333V27.9822H39.7156V17.7778L40.0178 17.5644C40.6451 17.171 41.3753 16.9729 42.1156 16.9956C43.7689 16.9956 44.7822 17.7778 44.7822 18.2044V29.76H48V21.1022C48.5862 20.7036 49.2824 20.4985 49.9911 20.5156C51.52 20.5156 52.6933 21.4222 52.6933 22.1867L52.64 32Z" fill="#3c4262"/>
</svg>
