<svg width="64" height="64" viewBox="0 0 64 64" fill="none"
    xmlns="http://www.w3.org/2000/svg">
    <path d="M46.6844 49.9378C46.674 49.2375 46.5602 48.5426 46.3467 47.8756C48.5511 47.5378 50.2222 45.12 50.2222 42.0622C50.2529 41.1352 50.1019 40.2112 49.7778 39.3422C50.751 38.7896 51.5499 37.9754 52.0841 36.9919C52.6183 36.0084 52.8663 34.895 52.8 33.7778C52.8434 32.8019 52.6531 31.8298 52.2449 30.9423C51.8368 30.0548 51.2225 29.2777 50.4533 28.6756C51.0559 27.659 51.3694 26.4972 51.36 25.3156C51.4537 23.8997 50.9886 22.5036 50.0647 21.4267C49.1407 20.3498 47.8314 19.6781 46.4178 19.5556H44.8C44.0889 17.6711 41.6 12.2489 36.1956 10.8267C30.7911 9.40444 21.9733 11.4311 15.2533 15.6089C10.8749 18.4174 7.01881 21.9667 3.85777 26.0978C3.66 26.372 3.5542 26.7019 3.55555 27.04V45.4222C3.55939 45.7761 3.67791 46.1192 3.89333 46.4C6.8353 49.5924 10.6092 51.9011 14.7911 53.0667C20.2974 55.0826 26.1392 56.0241 32 55.84H41.7778C43.2061 55.6958 44.5206 54.9964 45.4384 53.8925C46.3561 52.7886 46.8036 51.3684 46.6844 49.9378ZM32 52.64C26.4595 52.834 20.9343 51.9463 15.7333 50.0267C12.3687 49.0207 9.29153 47.2292 6.75555 44.8V27.5022C9.61757 23.8861 13.0527 20.7632 16.9244 18.2578C23.7867 14.0444 31.5556 12.9244 35.3956 13.8489C36.7263 14.3336 37.9407 15.0918 38.9604 16.0748C39.9801 17.0577 40.7824 18.2435 41.3156 19.5556H27.7156C27.2912 19.5556 26.8842 19.7241 26.5842 20.0242C26.2841 20.3242 26.1156 20.7312 26.1156 21.1556C26.1156 21.5799 26.2841 21.9869 26.5842 22.2869C26.8842 22.587 27.2912 22.7556 27.7156 22.7556H46.4178C47.2533 22.7556 48.1956 23.8044 48.1956 25.3511C48.1956 26.8978 47.2711 28 46.4178 28H36.2489V31.2H48.3378C48.8356 31.2 49.6 32.2311 49.6 33.7956C49.6 35.36 48.7467 36.5156 48.2667 36.5156H36.0178V39.7156H46.2222L46.4356 40.0178C46.829 40.6451 47.0271 41.3753 47.0044 42.1156C47.0044 43.7689 46.2222 44.7822 45.7956 44.7822H34.24V48H42.8978C43.2964 48.5862 43.5015 49.2824 43.4844 49.9911C43.4844 51.52 42.5778 52.6933 41.8133 52.6933L32 52.64Z" fill="white"/>
</svg>
