<svg width="64" height="64" viewBox="0 0 64 64" fill="none"
    xmlns="http://www.w3.org/2000/svg">
    <path d="M34.6667 32L54.0587 34.6667C55.3013 34.6667 56.4933 34.1733 57.3733 33.2933C60.104 30.5627 58.5467 25.888 54.7227 25.3413L37.3333 21.3333L54.208 17.312C55.2988 16.9904 56.2267 16.2664 56.804 15.2866C57.3813 14.3068 57.5649 13.1442 57.3175 12.0342C57.0702 10.9242 56.4104 9.94956 55.4717 9.30754C54.533 8.66552 53.3855 8.40404 52.2613 8.576L21.3333 13.3333" stroke="white" stroke-width="2" stroke-linecap="round" stroke-linejoin="round"/>
    <path d="M21.3333 13.3333C10.6666 14.7627 5.33331 22.288 5.33331 33.3333C5.33331 44.3787 10.6666 53.3333 21.3333 53.3333" stroke="white" stroke-width="2"/>
    <path d="M29.3333 32H34.6667C36.0812 32 37.4377 32.5619 38.4379 33.5621C39.4381 34.5623 40 35.9188 40 37.3333C40 38.7478 39.4381 40.1044 38.4379 41.1046C37.4377 42.1048 36.0812 42.6667 34.6667 42.6667H24M21.3333 53.3333H32C33.4145 53.3333 34.771 52.7714 35.7712 51.7712C36.7714 50.771 37.3333 49.4145 37.3333 48C37.3333 46.5855 36.7714 45.229 35.7712 44.2288C34.771 43.2286 33.4145 42.6667 32 42.6667L21.3333 53.3333Z" stroke="white" stroke-width="2" stroke-linecap="round" stroke-linejoin="round"/>
    <path d="M18.6666 27.488V34.6667C18.6666 36.0812 19.2286 37.4377 20.2287 38.4379C21.2289 39.4381 22.5855 40 24 40C25.4145 40 26.771 39.4381 27.7712 38.4379C28.7714 37.4377 29.3333 36.0812 29.3333 34.6667V24C29.3333 18.1067 24 12 16 14.6667" stroke="white" stroke-width="2" stroke-linecap="round" stroke-linejoin="round"/>
</svg>
