<svg width="64" height="64" viewBox="0 0 64 64" fill="none"
    xmlns="http://www.w3.org/2000/svg">
    <path d="M32 29.3333L29.3333 9.94134C29.3333 8.69867 29.8266 7.50667 30.7066 6.62667C33.4373 3.89601 38.112 5.45334 38.6586 9.27734L42.6666 26.6667L46.688 9.79201C47.0096 8.70118 47.7336 7.77325 48.7134 7.19597C49.6932 6.61868 50.8558 6.43514 51.9658 6.68249C53.0758 6.92984 54.0504 7.58961 54.6924 8.52829C55.3345 9.46698 55.5959 10.6145 55.424 11.7387L50.6666 42.6667" stroke="#3c4262" stroke-width="2" stroke-linecap="round" stroke-linejoin="round"/>
    <path d="M50.6667 42.6667C49.2373 53.3333 41.712 58.6667 30.6667 58.6667C19.6213 58.6667 10.6667 53.3333 10.6667 42.6667" stroke="#3c4262" stroke-width="2"/>
    <path d="M32 34.6667V29.3333C32 27.9188 31.4381 26.5623 30.4379 25.5621C29.4377 24.5619 28.0811 24 26.6667 24C25.2522 24 23.8956 24.5619 22.8954 25.5621C21.8952 26.5623 21.3333 27.9188 21.3333 29.3333V40M10.6667 42.6667V32C10.6667 30.5855 11.2286 29.229 12.2288 28.2288C13.2289 27.2286 14.5855 26.6667 16 26.6667C17.4145 26.6667 18.771 27.2286 19.7712 28.2288C20.7714 29.229 21.3333 30.5855 21.3333 32L10.6667 42.6667Z" stroke="#3c4262" stroke-width="2" stroke-linecap="round" stroke-linejoin="round"/>
    <path d="M36.512 45.3333H29.3333C27.9188 45.3333 26.5623 44.7714 25.5621 43.7712C24.5619 42.771 24 41.4145 24 40C24 38.5855 24.5619 37.229 25.5621 36.2288C26.5623 35.2286 27.9188 34.6667 29.3333 34.6667H40C45.8933 34.6667 52 40 49.3333 48" stroke="#3c4262" stroke-width="2" stroke-linecap="round" stroke-linejoin="round"/>
</svg>
